<svg version="1" xmlns="http://www.w3.org/2000/svg" width="193.333" height="193.333" viewBox="0 0 145.000000 145.000000"><path d="M44.2 27.2c-7.8 7.8-9.9 10.5-9 11.5 1.7 2.1 2.8 1.6 7.4-3.2 3.9-4.1 4.5-4.5 6.3-3.3 2.1 1.3 2.1 2 2.1 43.6v42.3l3.2 3c1.8 1.6 3.5 2.9 3.8 2.9.4 0 1.9-1.3 3.5-3l2.8-3 .1-18.2.1-18.3 8-7.9 8-7.8.5 22.9.5 22.9 5 5.2c8 8.5 7.5 8.5 16.7-.8 7.5-7.5 8-8.2 6.5-9.8-1.6-1.5-1.9-1.4-5.2 1.8l-3.5 3.3-3.1-3.3-3.2-3.3V66.1l.1-38.6-5.1-5.2-5.1-5.3-4.8 4.7c-2.6 2.6-4.8 5.1-4.8 5.6 0 .4 1.4 2 3 3.4 2.9 2.4 3 2.7 3 11.2v8.6l-8.3 8.3-8.3 8.3V47.3l.1-19.8-5.1-5.3-5-5.3-10.2 10.3z"/></svg>